<svg width="260" height="260" viewBox="0 0 260 260" fill="none" xmlns="http://www.w3.org/2000/svg">
  <defs>
    <linearGradient id="shield" x1="50" y1="30" x2="210" y2="230" gradientUnits="userSpaceOnUse">
      <stop stop-color="#22D3EE"/>
      <stop offset="0.4" stop-color="#8B5CF6"/>
      <stop offset="0.75" stop-color="#F472B6"/>
      <stop offset="1" stop-color="#F97316"/>
    </linearGradient>
    <linearGradient id="stem" x1="0" y1="0" x2="0" y2="1" gradientUnits="objectBoundingBox">
      <stop stop-color="#E0F2FE"/>
      <stop offset="1" stop-color="#C7D2FE"/>
    </linearGradient>
    <radialGradient id="halo" cx="130" cy="130" r="120" gradientUnits="userSpaceOnUse">
      <stop offset="0%" stop-color="#E0F2FE" stop-opacity="0.35"/>
      <stop offset="70%" stop-color="#E0F2FE" stop-opacity="0.08"/>
      <stop offset="100%" stop-color="#E0F2FE" stop-opacity="0"/>
    </radialGradient>
  </defs>

  <!-- Glow -->
  <circle cx="130" cy="130" r="120" fill="url(#halo)"/>

  <!-- Shield outline -->
  <path d="M130 28 L206 66 V140 C206 178 176 214 130 228 C84 214 54 178 54 140 V66 Z" fill="#0B1021" stroke="url(#shield)" stroke-width="6"/>

  <!-- Inner shield fill -->
  <path d="M130 44 L190 74 V138 C190 168 167 198 130 210 C93 198 70 168 70 138 V74 Z" fill="url(#shield)" opacity="0.18" stroke="url(#shield)" stroke-width="2"/>

  <!-- Letter I -->
  <g>
    <rect x="112" y="78" width="36" height="104" rx="10" fill="url(#stem)"/>
    <rect x="102" y="78" width="56" height="12" rx="6" fill="#FACC15" opacity="0.85"/>
    <rect x="102" y="170" width="56" height="12" rx="6" fill="#F97316" opacity="0.9"/>
  </g>

  <!-- Accent sparks -->
  <circle cx="78" cy="92" r="3.5" fill="#38BDF8"/>
  <circle cx="188" cy="90" r="3.5" fill="#FDE68A"/>
  <circle cx="186" cy="170" r="3.8" fill="#F472B6"/>
  <circle cx="74" cy="168" r="3.2" fill="#22D3EE"/>
  <circle cx="140" cy="54" r="3" fill="#FB7185"/>
</svg>
